<?xml version="1.0" encoding="utf-8"?>
<!-- Generator: Adobe Illustrator 16.0.0, SVG Export Plug-In . SVG Version: 6.00 Build 0)  -->
<!DOCTYPE svg PUBLIC "-//W3C//DTD SVG 1.1//EN" "http://www.w3.org/Graphics/SVG/1.1/DTD/svg11.dtd">
<svg version="1.1" id="Capa_1" xmlns="http://www.w3.org/2000/svg" xmlns:xlink="http://www.w3.org/1999/xlink" x="0px" y="0px"
	 width="349.078px" height="349.078px" viewBox="0 0 349.078 349.078" enable-background="new 0 0 349.078 349.078"
	 xml:space="preserve">
<g>
	<path d="M198.779,322.441v-58.246c0-7.903,6.406-14.303,14.304-14.303c28.184,0,43.516-28.904,45.644-85.961h-45.644
		c-7.897,0-14.304-6.41-14.304-14.304V26.64c0-7.9,6.406-14.301,14.304-14.301h121.689c7.897,0,14.306,6.408,14.306,14.301v122.988
		c0,27.349-2.76,52.446-8.182,74.611c-5.567,22.722-14.114,42.587-25.397,59.049c-11.604,16.917-26.132,30.192-43.154,39.437
		c-17.153,9.305-37.091,14.026-59.268,14.026C205.186,336.745,198.779,330.338,198.779,322.441z M14.301,249.887
		C6.403,249.887,0,256.293,0,264.186v58.256c0,7.897,6.404,14.3,14.301,14.3c22.166,0,42.114-4.722,59.256-14.026
		c17.031-9.244,31.558-22.508,43.16-39.438c11.29-16.463,19.837-36.328,25.404-59.062c5.423-22.165,8.178-47.263,8.178-74.6V26.628
		c0-7.9-6.409-14.301-14.304-14.301H14.301C6.403,12.327,0,18.734,0,26.628v122.988c0,7.899,6.404,14.304,14.301,14.304h45.003
		C57.201,220.982,42.09,249.887,14.301,249.887z"/>
</g>
</svg>
